<?xml version="1.0" encoding="UTF-8" standalone="no"?><!-- Generator: Gravit.io --><svg xmlns="http://www.w3.org/2000/svg" xmlns:xlink="http://www.w3.org/1999/xlink" style="isolation:isolate" viewBox="0 0 425.777 425.777" width="425.777pt" height="425.777pt"><defs><clipPath id="_clipPath_BWBphPug2cOrdqTpVQiRuJ3d6vhpAJjX"><rect width="425.777" height="425.777"/></clipPath></defs><g clip-path="url(#_clipPath_BWBphPug2cOrdqTpVQiRuJ3d6vhpAJjX)"><path d=" M 330.3 130.063 C 272.254 109.766 252.921 101.081 246.158 75.81 C 245.573 73.623 243.592 72.102 241.328 72.102 L 217.888 72.102 L 217.888 64.088 C 233.298 61.678 245.126 48.315 245.126 32.238 C 245.126 14.463 230.665 0 212.888 0 C 195.112 0 180.65 14.463 180.65 32.238 C 180.65 35 182.888 37.238 185.65 37.238 C 188.412 37.238 190.65 35 190.65 32.238 C 190.65 19.976 200.626 10 212.888 10 C 225.151 10 235.126 19.977 235.126 32.238 C 235.126 44.501 225.15 54.476 212.888 54.476 C 210.126 54.476 207.888 56.715 207.888 59.476 L 207.888 72.101 L 184.449 72.101 C 182.185 72.101 180.204 73.622 179.619 75.809 C 172.856 101.08 153.523 109.765 95.477 130.062 C 36.793 150.58 38.487 169.108 39.422 172.614 C 40.006 174.802 41.988 176.326 44.253 176.326 L 114.287 176.326 L 114.185 420.777 C 114.185 423.539 116.423 425.777 119.185 425.777 C 121.947 425.777 124.185 423.539 124.185 420.777 L 124.185 399.568 L 133.658 399.568 L 133.658 420.777 C 133.658 423.539 135.896 425.777 138.658 425.777 C 141.42 425.777 143.658 423.539 143.658 420.777 L 143.658 399.568 L 153.132 399.568 L 153.132 420.777 C 153.132 423.539 155.37 425.777 158.132 425.777 C 160.894 425.777 163.132 423.539 163.132 420.777 L 163.132 399.568 L 172.606 399.568 L 172.606 420.777 C 172.606 423.539 174.844 425.777 177.606 425.777 C 180.368 425.777 182.606 423.539 182.606 420.777 L 182.606 399.568 L 192.078 399.568 L 192.078 420.777 C 192.078 423.539 194.316 425.777 197.078 425.777 C 199.84 425.777 202.078 423.539 202.078 420.777 L 202.078 399.568 L 211.551 399.568 L 211.551 420.777 C 211.551 423.539 213.789 425.777 216.551 425.777 C 219.313 425.777 221.551 423.539 221.551 420.777 L 221.551 399.568 L 231.025 399.568 L 231.025 420.777 C 231.025 423.539 233.263 425.777 236.025 425.777 C 238.787 425.777 241.025 423.539 241.025 420.777 L 241.025 399.568 L 250.498 399.568 L 250.498 420.675 C 250.498 423.437 252.736 425.675 255.498 425.675 C 258.26 425.675 260.498 423.437 260.498 420.675 L 260.498 348.286 L 262.646 348.286 L 262.646 369.6 C 262.646 372.362 264.884 374.6 267.646 374.6 C 270.408 374.6 272.646 372.362 272.646 369.6 L 272.646 348.287 L 282.119 348.287 L 282.119 369.6 C 282.119 372.362 284.357 374.6 287.119 374.6 C 289.881 374.6 292.119 372.362 292.119 369.6 L 292.119 348.287 L 301.594 348.287 L 301.594 369.496 C 301.594 372.258 303.832 374.496 306.594 374.496 C 309.356 374.496 311.594 372.258 311.594 369.496 L 311.594 176.326 L 381.526 176.326 C 383.791 176.326 385.773 174.803 386.357 172.614 C 387.291 169.108 388.984 150.58 330.3 130.063 Z  M 250.497 389.568 L 212.139 389.568 L 250.497 352.724 L 250.497 389.568 L 250.497 389.568 Z  M 250.497 338.857 L 197.702 389.568 L 156.967 389.568 L 250.497 299.73 L 250.497 338.857 L 250.497 338.857 Z  M 250.497 285.863 L 142.53 389.568 L 124.288 389.568 L 124.288 341.465 L 250.497 220.237 L 250.497 285.863 L 250.497 285.863 Z  M 250.497 206.371 L 124.288 327.6 L 124.288 288.471 L 250.497 167.244 L 250.497 206.371 L 250.497 206.371 Z  M 174.226 161.012 L 242.549 161.012 L 124.288 274.603 L 124.288 208.978 L 174.226 161.012 L 174.226 161.012 Z  M 124.288 195.113 L 124.288 161.011 L 159.79 161.011 L 124.288 195.113 L 124.288 195.113 Z  M 115.852 151.012 C 137.427 139.727 173.425 121.826 191.353 118.151 L 234.424 118.151 C 252.346 121.826 288.346 139.726 309.923 151.012 L 115.852 151.012 L 115.852 151.012 Z  M 284.214 338.287 L 260.496 315.506 L 260.496 276.379 L 301.592 315.852 L 301.592 338.288 L 284.214 338.288 L 284.214 338.287 Z  M 301.592 183.365 L 301.592 222.492 L 260.496 183.019 L 260.496 161.011 L 278.32 161.011 L 301.592 183.365 L 301.592 183.365 Z  M 292.756 161.012 L 301.592 161.012 L 301.592 169.499 L 292.756 161.012 L 292.756 161.012 Z  M 301.592 236.359 L 301.592 301.984 L 260.496 262.511 L 260.496 196.885 L 301.592 236.359 L 301.592 236.359 Z  M 260.497 329.373 L 269.777 338.287 L 260.497 338.287 L 260.497 329.373 L 260.497 329.373 Z  M 311.592 166.326 L 311.592 161.012 L 329.851 161.012 C 332.13 161.012 334.121 159.471 334.692 157.264 C 335.262 155.059 334.27 152.744 332.277 151.639 C 329.485 150.09 263.573 113.635 235.875 108.243 C 235.56 108.181 190.218 108.181 189.903 108.243 C 162.205 113.635 96.292 150.09 93.5 151.639 C 91.507 152.744 90.515 155.059 91.085 157.264 C 91.656 159.471 93.646 161.012 95.926 161.012 L 114.288 161.012 L 114.288 166.326 L 51.075 166.326 C 54.817 160.971 65.914 150.992 98.778 139.502 C 153.193 120.475 178.809 110.422 188.174 82.102 L 237.605 82.102 C 246.969 110.422 272.586 120.475 327.001 139.502 C 359.865 150.992 370.962 160.971 374.704 166.326 L 311.592 166.326 L 311.592 166.326 Z " fill="rgb(252,252,252)"/></g></svg>