<?xml version="1.0" encoding="UTF-8" standalone="no"?><!-- Generator: Gravit.io --><svg xmlns="http://www.w3.org/2000/svg" xmlns:xlink="http://www.w3.org/1999/xlink" style="isolation:isolate" viewBox="0 0 479 479" width="479pt" height="479pt"><defs><clipPath id="_clipPath_tfV9DkgbBpbkDn2JA3sVV5fekQvRbEcu"><rect width="479" height="479"/></clipPath></defs><g clip-path="url(#_clipPath_tfV9DkgbBpbkDn2JA3sVV5fekQvRbEcu)"><path d=" M 240.561 47.893 C 236.152 47.893 232.578 51.468 232.578 55.877 L 232.578 82.061 L 190.625 96.039 L 111.227 111.921 C 110.264 112.112 109.341 112.478 108.506 113.004 L 20.688 168.889 C 16.965 171.255 15.87 176.194 18.236 179.917 L 74.121 267.735 C 75.391 269.719 77.469 271.041 79.804 271.348 C 82.143 271.656 84.494 270.92 86.232 269.329 L 104.842 252.462 L 104.842 471.017 C 104.842 475.426 108.417 479.001 112.826 479.001 L 368.297 479.001 C 372.706 479.001 376.28 475.426 376.28 471.017 L 376.28 254.169 L 395.179 269.625 C 396.89 271.048 399.124 271.676 401.326 271.348 C 403.525 271.052 405.501 269.844 406.768 268.019 L 462.652 188.185 C 465.151 184.622 464.328 179.714 460.808 177.153 L 372.99 113.285 C 372.058 112.607 370.99 112.143 369.864 111.921 L 290.497 96.039 L 248.545 82.061 L 248.545 62.726 C 264.574 58.547 274.733 42.794 271.922 26.469 C 269.111 10.147 254.271 -1.306 237.77 0.117 C 221.265 1.54 208.604 15.363 208.627 31.926 C 208.627 36.335 212.202 39.91 216.611 39.91 C 221.02 39.91 224.594 36.335 224.594 31.926 C 224.594 23.108 231.743 15.959 240.561 15.959 C 249.379 15.959 256.528 23.108 256.528 31.926 C 256.528 40.744 249.379 47.893 240.561 47.893 L 240.561 47.893 Z  M 240.561 96.223 L 279.921 109.363 C 277.227 129.038 260.418 143.703 240.561 143.703 C 220.704 143.703 203.899 129.038 201.201 109.363 L 240.561 96.223 Z  M 445.083 185.456 L 398.632 251.823 L 373.36 231.139 C 370.971 229.178 367.665 228.773 364.874 230.098 C 362.087 231.419 360.309 234.234 360.313 237.325 L 360.313 463.034 L 120.809 463.034 L 120.809 234.409 C 120.809 231.248 118.946 228.387 116.057 227.108 C 113.165 225.829 109.793 226.375 107.454 228.504 L 82.537 251.16 L 36.024 178.081 L 115.858 127.28 L 185.476 113.355 C 190.123 140.136 213.36 159.689 240.538 159.689 C 267.716 159.689 290.953 140.136 295.6 113.355 L 364.991 127.241 L 445.083 185.456 Z " fill="rgb(255,255,255)"/></g></svg>